{"title":"Keisha Grey - TeensLoveHugeCocks - Kinky Keisha","uid":9567661,"size":426761382,"categoryP":"porn","categoryS":"movie_clips","magnet":"?xt=urn:btih:8bdf9c3667ee1e519f90e831e17cb27eae153c62&amp;dn=Keisha+Grey+-+TeensLoveHugeCocks+-+Kinky+Keisha&amp;tr=udp%3A%2F%2Ftracker.openbittorrent.com%3A80&amp;tr=udp%3A%2F%2Fopen.demonii.com%3A1337&amp;tr=udp%3A%2F%2Ftracker.coppersurfer.tk%3A6969&amp;tr=udp%3A%2F%2Fexodus.desync.com%3A6969","seeders":2,"leechers":2,"uploader":"athklym","files":-1,"time":1391550569,"description":" &lt;a href=&quot;http://bayimg.com/DaiCCaaFH&quot; rel=&quot;nofollow&quot; target=&quot;_NEW&quot;&gt;http://bayimg.com/DaiCCaaFH&lt;/a&gt;\nKeisha may have been a little shy and soft spoken at times, but she didn't stray away from telling us what she loved to do. She loved to rub her clit because that was the spot that got her pussy the wettest. Even though Keisha loved getting her clit excited, huge cocks were what she enjoyed most. After she showed off her righteously curved body, Keisha shook her plump rump. She loosened up some more, as she showed off more, and her tits were out in full force. Then she rubbed her clit, as she showed her off her amazing ass in doggie. Chris crept in to get a closer look. He dove into her ass like it was his last meal. Keisha moaned, as he cleaned her salad bowl. After that her smile got even bigger, as Keisha unwound his man hose from his jeans. She got him nice and hard, so she could take the pounding deep inside her box. Her curvaceous body moved oh so nicely, as Keisha got a good stroking from him. Chris couldn't hold it in forever, so he exploded all over her face.\n\nKeisha_Grey_Teens_Love_Huge_Cocks_Kinky_Keisha.mp4\nFormat : MPEG-4\nFormat profile : Base Media / Version 2\nCodec ID : mp42\nFile size : 407 MiB\nDuration : 36mn 57s\nOverall bit rate mode : Variable\nOverall bit rate : 1 540 Kbps\nMovie name : www.avenuexxx.com\nEncoded date : UTC 2014-01-21 23:54:39\nTagged date : UTC 2014-01-21 23:54:39\nWriting library : Apple QuickTime\n\nVideo\nID : 1\nFormat : AVC\nFormat/Info : Advanced Video Codec\nFormat profile : &lt;a class=&quot;__cf_email__&quot; href=&quot;/cdn-cgi/l/email-protection&quot; data-cfemail=&quot;90ddf1f9fed0dca3bea0&quot;&gt;[email&amp;#160;protected]&lt;/a&gt;&lt;script cf-hash='f9e31' type=&quot;text/javascript&quot;&gt;\n/* &lt;![CDATA[ */!function(){try{var t=&quot;currentScript&quot;in document?document.currentScript:function(){for(var t=document.getElementsByTagName(&quot;script&quot;),e=t.length;e--;)if(t[e].getAttribute(&quot;cf-hash&quot;))return t[e]}();if(t&amp;&amp;t.previousSibling){var e,r,n,i,c=t.previousSibling,a=c.getAttribute(&quot;data-cfemail&quot;);if(a){for(e=&quot;&quot;,r=parseInt(a.substr(0,2),16),n=2;a.length-n;n+=2)i=parseInt(a.substr(n,2),16)^r,e+=String.fromCharCode(i);e=document.createTextNode(e),c.parentNode.replaceChild(e,c)}}}catch(u){}}();/* ]]&gt; */&lt;/script&gt;\nFormat settings, CABAC : No\nFormat settings, ReFrames : 6 frames\nCodec ID : avc1\nCodec ID/Info : Advanced Video Coding\nDuration : 36mn 57s\nSource duration : 36mn 57s\nBit rate mode : Variable\nBit rate : 1 438 Kbps\nMaximum bit rate : 1 500 Kbps\nWidth : 768 pixels\nHeight : 432 pixels\nDisplay aspect ratio : 16:9\nFrame rate mode : Constant\nFrame rate : 29.970 fps\nStandard : Component\nColor space : YUV\nChroma subsampling : 4:2:0\nBit depth : 8 bits\nScan type : Progressive\nBits/(Pixel*Frame) : 0.145\nStream size : 380 MiB (93%)\nSource stream size : 397 MiB (98%)\nEncoded date : UTC 2014-01-21 23:54:39\nTagged date : UTC 2014-01-20 23:56:31\n\nAudio\nID : 2\nFormat : AAC\nFormat/Info : Advanced Audio Codec\nFormat profile : LC\nCodec ID : 40\nDuration : 36mn 57s\nBit rate mode : Variable\nBit rate : 32.0 Kbps\nMaximum bit rate : 35.2 Kbps\nChannel count : 1 channel\nChannel positions : Front: C\nSampling rate : 32.0 KHz\nCompression mode : Lossy\nStream size : 8.46 MiB (2%)\nEncoded date : UTC 2014-01-21 23:54:39\nTagged date : UTC 2014-01-20 23:56:31","torrent":{"xt":"urn:btih:8bdf9c3667ee1e519f90e831e17cb27eae153c62","amp;dn":"Keisha+Grey+-+TeensLoveHugeCocks+-+Kinky+Keisha","amp;tr":["udp%3A%2F%2Ftracker.openbittorrent.com%3A80","udp%3A%2F%2Fopen.demonii.com%3A1337","udp%3A%2F%2Ftracker.coppersurfer.tk%3A6969","udp%3A%2F%2Fexodus.desync.com%3A6969"],"infoHash":"8bdf9c3667ee1e519f90e831e17cb27eae153c62","infoHashBuffer":{"type":"Buffer","data":[139,223,156,54,103,238,30,81,159,144,232,49,225,124,178,126,174,21,60,98]},"announce":[],"urlList":[]}}